<svg width="41" height="40" viewBox="0 0 41 40" fill="none" xmlns="http://www.w3.org/2000/svg">
<path d="M15.6499 5C13.4398 5 11.3202 5.87797 9.75739 7.44078C8.19458 9.00358 7.31661 11.1232 7.31661 13.3333C7.31661 15.5435 8.19458 17.6631 9.75739 19.2259C11.3202 20.7887 13.4398 21.6667 15.6499 21.6667C17.8601 21.6667 19.9797 20.7887 21.5425 19.2259C23.1053 17.6631 23.9833 15.5435 23.9833 13.3333C23.9833 11.1232 23.1053 9.00358 21.5425 7.44078C19.9797 5.87797 17.8601 5 15.6499 5ZM10.6499 13.3333C10.6499 12.0073 11.1767 10.7355 12.1144 9.7978C13.0521 8.86012 14.3239 8.33333 15.6499 8.33333C16.976 8.33333 18.2478 8.86012 19.1855 9.7978C20.1232 10.7355 20.6499 12.0073 20.6499 13.3333C20.6499 14.6594 20.1232 15.9312 19.1855 16.8689C18.2478 17.8065 16.976 18.3333 15.6499 18.3333C14.3239 18.3333 13.0521 17.8065 12.1144 16.8689C11.1767 15.9312 10.6499 14.6594 10.6499 13.3333ZM28.8299 13.6967C28.3612 13.4578 27.8427 13.3333 27.3166 13.3333V10C28.3692 10.0001 29.4067 10.2494 30.3444 10.7275C31.2821 11.2056 32.0932 11.8989 32.7115 12.7507C33.3298 13.6025 33.7375 14.5886 33.9015 15.6283C34.0654 16.668 33.9808 17.7317 33.6547 18.7325C33.3285 19.7332 32.7701 20.6425 32.025 21.3859C31.2799 22.1294 30.3694 22.6858 29.368 23.0097C28.3665 23.3337 27.3026 23.4159 26.2633 23.2497C25.2239 23.0834 24.2387 22.6735 23.3883 22.0533L25.3516 19.36C25.7233 19.6305 26.147 19.8212 26.5959 19.9201C27.0449 20.0191 27.5094 20.024 27.9604 19.9348C28.4114 19.8455 28.839 19.6639 29.2164 19.4014C29.5939 19.1389 29.9129 18.8011 30.1535 18.4094C30.3941 18.0177 30.5511 17.5804 30.6145 17.1251C30.678 16.6697 30.6466 16.2062 30.5223 15.7636C30.398 15.321 30.1835 14.9089 29.8922 14.5532C29.601 14.1975 29.2393 13.9059 28.8299 13.6967ZM33.9799 35C33.9795 33.2329 33.2773 31.5383 32.0278 30.2888C30.7783 29.0393 29.0837 28.3371 27.3166 28.3367V25C29.9686 25.0004 32.5119 26.0542 34.3872 27.9294C36.2625 29.8047 37.3162 32.348 37.3166 35H33.9799ZM27.3166 35H23.9833C23.9833 32.7899 23.1053 30.6702 21.5425 29.1074C19.9797 27.5446 17.8601 26.6667 15.6499 26.6667C13.4398 26.6667 11.3202 27.5446 9.75739 29.1074C8.19458 30.6702 7.31661 32.7899 7.31661 35H3.98328C3.98328 31.9058 5.21244 28.9383 7.40036 26.7504C9.58829 24.5625 12.5558 23.3333 15.6499 23.3333C18.7441 23.3333 21.7116 24.5625 23.8995 26.7504C26.0875 28.9383 27.3166 31.9058 27.3166 35Z" fill="#664BC4"/>
</svg>
