<svg width="40" height="40" viewBox="0 0 40 40" fill="none" xmlns="http://www.w3.org/2000/svg">
<path d="M3.33329 20.0002H6.66662C6.66265 18.248 7.00468 16.5123 7.67308 14.8927C8.34148 13.273 9.3231 11.8012 10.5616 10.5618C11.7746 9.34481 13.2138 8.37665 14.7983 7.71183C18.0641 6.35505 21.7313 6.33052 25.015 7.6435C25.0471 8.72261 25.4988 9.74666 26.274 10.498C27.0493 11.2493 28.087 11.6686 29.1666 11.6668C31.4766 11.6668 33.3333 9.81016 33.3333 7.50016C33.3333 5.19016 31.4766 3.3335 29.1666 3.3335C28.0183 3.3335 26.98 3.7935 26.2283 4.54183C22.1766 2.92016 17.5233 2.94516 13.5033 4.64016C11.5218 5.47299 9.72165 6.68388 8.20329 8.20516C6.68132 9.72266 5.46983 11.5224 4.63662 13.5035C3.77196 15.5601 3.32876 17.7692 3.33329 20.0002ZM32.2883 25.2035C31.62 26.7902 30.66 28.2168 29.4383 29.4385C28.2166 30.6602 26.79 31.6202 25.2016 32.2885C21.9358 33.6453 18.2686 33.6698 14.985 32.3568C14.9528 31.2777 14.5011 30.2537 13.7259 29.5024C12.9506 28.751 11.9129 28.3317 10.8333 28.3335C8.52329 28.3335 6.66662 30.1902 6.66662 32.5002C6.66662 34.8102 8.52329 36.6668 10.8333 36.6668C11.9816 36.6668 13.02 36.2068 13.7716 35.4585C15.7508 36.2578 17.8655 36.668 20 36.6668C23.2775 36.6732 26.4839 35.7113 29.2168 33.902C31.9498 32.0927 34.0874 29.5166 35.3616 26.4968C36.2274 24.4406 36.6712 22.2313 36.6666 20.0002H33.3333C33.3375 21.7871 32.9821 23.5567 32.2883 25.2035Z" fill="#694BC4"/>
<path d="M20 12.4365C15.83 12.4365 12.4366 15.8299 12.4366 19.9999C12.4366 24.1699 15.83 27.5632 20 27.5632C24.17 27.5632 27.5633 24.1699 27.5633 19.9999C27.5633 15.8299 24.17 12.4365 20 12.4365ZM20 24.2299C17.6683 24.2299 15.77 22.3315 15.77 19.9999C15.77 17.6682 17.6683 15.7699 20 15.7699C22.3316 15.7699 24.23 17.6682 24.23 19.9999C24.23 22.3315 22.3316 24.2299 20 24.2299Z" fill="#694BC4"/>
</svg>
